# File created by Blade
# Date/Time:  Thu Sep 25 19:32:06 2014
# Frame Rate: 120.000 fps
#------------------------------------------------------
:FULLY-SPECIFIED
:DEGREES
1864
root 6.967394 32.202853 -1.806318 6.834933 -18.730961 -0.543756
Spine -15.238384 7.411446 -25.816393
Head 0.160490 6.807400 -1.052186
LeftShoulder -13.653964 22.814222 13.582793
LeftArm 20.024619 1.507873 -57.448386
LeftForeArm 10.669235 -0.000000 16.292409
LeftHand -28.086693 -0.000000 -0.226441
LeftHandThumb1 -26.253704 0.000000 33.147579
RightShoulder -16.617631 19.534671 -42.055244
RightArm -5.170104 28.386467 21.895428
RightForeArm 18.757303 -0.000000 22.418259
RightHand 0.297572 0.000000 -8.274452
RightHandThumb1 -24.326973 -0.000000 -32.862282
LeftUpLeg -14.699533 8.195526 -7.764120
LeftLeg 23.874150 -0.000000 -0.000000
LeftFoot -25.953389 15.634960 -15.524535
LeftToeBase 10.010205 -0.000000 -0.000000
RightUpLeg 6.004080 3.389862 14.328801
RightLeg -1.377963 -0.000000 0.000000
RightFoot -8.788331 -2.486601 -4.953436
RightToeBase -2.155101 -0.000000 0.000000
1865
root 6.957950 32.194801 -1.813294 6.743999 -18.725902 -0.623877
Spine -15.252003 7.463501 -26.057202
Head 0.304779 6.842369 -1.111376
LeftShoulder -13.608013 22.744021 13.474572
LeftArm 19.938929 1.550167 -57.567788
LeftForeArm 10.703966 -0.000000 16.362836
LeftHand -28.259613 -0.000000 -0.392026
LeftHandThumb1 -26.253704 0.000000 33.147579
RightShoulder -16.641173 19.535325 -42.180212
RightArm -5.018531 28.519545 21.628968
RightForeArm 18.782832 0.000000 22.527942
RightHand 0.210968 -0.000000 -8.208566
RightHandThumb1 -24.326973 -0.000000 -32.862282
LeftUpLeg -14.747137 8.257416 -7.652083
LeftLeg 24.198961 -0.000000 -0.000000
LeftFoot -26.049994 15.519662 -15.587204
LeftToeBase 10.008395 -0.000000 -0.000000
RightUpLeg 6.128021 3.335215 14.429703
RightLeg -1.409775 -0.000000 0.000000
RightFoot -8.780403 -2.450080 -4.963181
RightToeBase -2.167431 -0.000000 0.000000
1866
root 6.950584 32.186867 -1.824085 6.663737 -18.736647 -0.707856
Spine -15.263287 7.472704 -26.278010
Head 0.471285 6.901243 -1.153279
LeftShoulder -13.656274 22.744259 13.317087
LeftArm 19.958682 1.554931 -57.680623
LeftForeArm 10.674148 -0.000000 16.365339
LeftHand -28.299972 -0.000000 -0.183739
LeftHandThumb1 -26.253704 0.000000 33.147579
RightShoulder -16.597018 19.576363 -42.239056
RightArm -4.879611 28.699139 21.284666
RightForeArm 18.934487 -0.000000 22.645726
RightHand 0.259725 -0.000000 -8.247899
RightHandThumb1 -24.326973 -0.000000 -32.862282
LeftUpLeg -14.773733 8.291937 -7.549135
LeftLeg 24.443682 -0.000000 -0.000000
LeftFoot -26.155155 15.508132 -15.647332
LeftToeBase 9.968886 -0.000000 -0.000000
RightUpLeg 6.228465 3.310953 14.532689
RightLeg -1.420083 -0.000000 0.000000
RightFoot -8.780654 -2.434873 -4.970795
RightToeBase -2.132084 -0.000000 0.000000
1867
root 6.942366 32.178599 -1.835187 6.589169 -18.747953 -0.811680
Spine -15.271329 7.500898 -26.467540
Head 0.586307 6.918174 -1.287096
LeftShoulder -13.683741 22.687927 13.161130
LeftArm 19.893980 1.509455 -57.833638
LeftForeArm 10.699310 -0.000000 16.451077
LeftHand -28.377701 0.000000 0.346494
LeftHandThumb1 -26.253704 0.000000 33.147579
RightShoulder -16.624853 19.615416 -42.361144
RightArm -4.680329 28.875795 21.040615
RightForeArm 19.017810 0.000000 22.780122
RightHand 0.370573 -0.000000 -8.291305
RightHandThumb1 -24.326973 -0.000000 -32.862282
LeftUpLeg -14.826952 8.360612 -7.423434
LeftLeg 24.751149 -0.000000 -0.000000
LeftFoot -26.280454 15.446061 -15.682613
LeftToeBase 10.002849 -0.000000 -0.000000
RightUpLeg 6.329898 3.267882 14.653331
RightLeg -1.437622 -0.000000 0.000000
RightFoot -8.748136 -2.424956 -5.045225
RightToeBase -2.235595 -0.000000 0.000000
1868
root 6.936892 32.170026 -1.852641 6.538098 -18.773988 -0.926117
Spine -15.292534 7.510424 -26.621428
Head 0.684425 7.018384 -1.449864
LeftShoulder -13.731635 22.671241 12.958588
LeftArm 19.864559 1.479483 -57.954722
LeftForeArm 10.691499 -0.000000 16.489108
LeftHand -28.494429 0.000000 0.187777
LeftHandThumb1 -26.253704 0.000000 33.147579
RightShoulder -16.591730 19.718959 -42.506414
RightArm -4.598227 29.021050 20.753644
RightForeArm 19.143036 -0.000000 23.034541
RightHand 0.344895 0.000000 -8.390340
RightHandThumb1 -24.326973 -0.000000 -32.862282
LeftUpLeg -14.931436 8.465702 -7.290373
LeftLeg 25.100304 -0.000000 -0.000000
LeftFoot -26.390151 15.298549 -15.770637
LeftToeBase 9.936703 -0.000000 -0.000000
RightUpLeg 6.385777 3.265989 14.784579
RightLeg -1.412691 -0.000000 0.000000
RightFoot -8.764779 -2.420321 -5.077858
RightToeBase -2.231962 -0.000000 0.000000
1869
root 6.927940 32.162556 -1.865857 6.471918 -18.782046 -1.002340
Spine -15.318634 7.508331 -26.854481
Head 0.790037 7.101953 -1.509445
LeftShoulder -13.715871 22.645591 12.851229
LeftArm 19.774370 1.480051 -58.091952
LeftForeArm 10.683367 -0.000000 16.571950
LeftHand -28.562160 -0.000000 0.732528
LeftHandThumb1 -26.253704 0.000000 33.147579
RightShoulder -16.626148 19.775606 -42.635185
RightArm -4.420581 29.212895 20.543698
RightForeArm 19.222773 -0.000000 23.278102
RightHand 0.385047 -0.000000 -8.125193
RightHandThumb1 -24.326973 -0.000000 -32.862282
LeftUpLeg -14.950767 8.502961 -7.191183
LeftLeg 25.290704 -0.000000 -0.000000
LeftFoot -26.476307 15.293370 -15.791308
LeftToeBase 9.901193 -0.000000 -0.000000
RightUpLeg 6.464595 3.250851 14.887014
RightLeg -1.420187 -0.000000 0.000000
RightFoot -8.771138 -2.400851 -5.055370
RightToeBase -2.148022 -0.000000 0.000000
